####
#
# OBJ File Generated by Meshlab
#
####
# Object lens_prototype_max_fov_handle.obj
#
# Vertices: 162
# Faces: 352
#
####
vn 2.521803 -1.044569 -1.839947
v 241.335678 81.663818 0.000000
vn -2.521802 -1.044551 -4.443248
v 239.684677 173.472122 0.000000
vn 2.521802 1.044569 -1.839951
v 241.335678 174.155380 0.000000
vn 1.398202 4.642044 2.381990
v 149.684860 228.552017 63.002159
vn -1.143754 2.761177 2.921498
v 93.207962 215.968857 135.001007
vn 1.143754 2.761180 2.921500
v 166.161835 215.968857 135.001007
vn -2.521803 1.044569 -1.839942
v 18.034119 174.155380 0.000000
vn -2.761180 1.143754 2.921499
v 41.625637 164.386536 135.001007
vn -4.642044 1.398206 2.381990
v 29.042477 147.909561 63.002159
vn -2.761179 -1.143754 2.921499
v 41.625637 91.432655 135.001007
vn -1.044569 -2.521802 -1.839951
v 83.439117 16.258818 0.000000
vn -1.143754 -2.761177 2.921498
v 93.207962 39.850334 135.001007
vn 2.761180 1.143754 2.921502
v 217.744156 164.386536 135.001007
vn 1.044569 2.521803 -1.839942
v 175.930679 239.560379 0.000000
vn 1.398206 -4.642044 2.381989
v 149.684860 27.267176 63.002159
vn -1.398206 -4.642045 2.381990
v 109.679863 27.267176 63.002159
vn 2.761181 -1.143754 2.921502
v 217.744156 91.432655 135.001007
vn 1.044569 -2.521803 -1.839942
v 175.930679 16.258818 0.000000
vn 4.642044 -1.398202 2.381990
v 230.327316 107.909637 63.002159
vn -2.761197 -1.143706 3.361706
v 216.095703 163.700745 135.001007
vn -2.761197 1.143706 3.361706
v 216.095703 92.118454 135.001007
vn -0.721558 -4.826260 1.571183
v 80.449539 106.433899 48.000919
vn -0.850110 -0.850105 -5.497793
v 127.838318 126.063019 45.001179
vn -0.850107 -0.850107 -0.785396
v 127.838318 126.063019 48.000919
vn 1.708622 4.004632 1.140393
v 86.830017 27.061436 48.000919
vn 2.761194 1.143703 3.361706
v 43.274101 92.118454 135.001007
vn 1.143702 2.761189 3.361707
v 93.893761 41.498798 135.001007
vn 0.721559 4.826259 1.571181
v 178.920258 149.385300 48.000919
vn 0.850110 0.850107 -5.497793
v 131.531479 129.756180 45.001179
vn 0.850107 0.850107 -0.785396
v 131.531479 129.756180 48.000919
vn -1.953963 -3.762637 -2.761980
v 172.755676 229.280991 45.001179
vn -4.004632 -1.708618 1.140390
v 230.533066 170.764481 48.000919
vn -1.708622 -4.004630 1.140399
v 172.539780 228.757767 48.000919
vn 4.826260 0.721558 1.571180
v 151.160599 177.144958 48.000919
vn -4.826260 -0.721558 1.571182
v 108.209198 78.674240 48.000919
vn 0.000004 1.202288 -5.497736
v 129.684906 130.523254 45.001179
vn -1.143736 -2.761183 -2.921465
v 171.991135 230.045532 45.001179
vn -2.902491 3.922828 1.573729
v 149.314026 177.909500 48.000919
vn -0.000000 1.202293 -0.785438
v 129.684906 130.523254 48.000919
vn 1.278635 -4.041948 -2.762622
v 88.460701 230.045532 45.001179
vn -1.623812 -4.040074 1.139615
v 170.690659 229.522308 48.000919
vn 1.623809 -4.040071 1.139614
v 88.679138 229.522308 48.000919
vn 2.902492 -3.922829 1.573731
v 110.055779 77.909698 48.000919
vn -0.000000 -1.202289 -5.497747
v 129.684906 125.295937 45.001179
vn -0.000000 -1.202293 -0.785438
v 129.684906 125.295937 48.000919
vn 1.278631 4.041947 -2.762629
v 88.460701 25.773657 45.001179
vn -1.623817 4.040071 1.139612
v 170.690659 26.296892 48.000919
vn -1.278630 4.041944 -2.762630
v 170.909103 25.773657 45.001179
vn 2.902493 3.922829 1.573729
v 110.055779 177.909500 48.000919
vn -2.902491 -3.922827 1.573732
v 149.314026 77.909698 48.000919
vn 0.836852 2.020331 5.293583
v 150.396057 177.909500 48.000919
vn -1.044575 -2.521786 1.839920
v 171.775238 229.522308 48.000919
vn -2.761183 -1.143737 -2.921464
v 231.820847 170.215836 45.001179
vn -4.041944 -1.278630 -2.762631
v 231.820847 169.133804 45.001179
vn 1.143737 -2.761183 -2.921465
v 87.378662 230.045532 45.001179
vn 1.143737 2.761183 -2.921463
v 87.378662 25.773657 45.001179
vn -0.234323 1.574346 -2.221243
v 86.614120 26.538200 45.001179
vn 0.000000 0.000000 -6.283182
v 130.218292 126.586258 45.001179
vn 0.000000 0.000000 -6.283185
v 130.975220 127.360954 45.001179
vn 0.000000 0.000000 -6.283185
v 130.998077 127.350800 45.001179
vn 1.202289 0.000000 -5.497749
v 132.298553 127.909599 45.001179
vn 3.922827 -2.902491 1.573709
v 179.684799 147.538712 48.000919
vn 1.202293 0.000000 -0.785437
v 132.298553 127.909599 48.000919
vn -4.040069 1.623816 1.139605
v 231.297607 86.903839 48.000919
vn -4.040068 -1.623818 1.139608
v 231.297607 168.915359 48.000919
vn -4.826259 0.721558 1.571181
v 108.209198 177.144958 48.000919
vn -0.850110 0.850107 -5.497789
v 127.838318 129.756180 45.001179
vn -0.850107 0.850107 -0.785396
v 127.838318 129.756180 48.000919
vn 4.004631 -1.708621 1.140388
v 28.836737 170.764481 48.000919
vn 1.143702 -2.761193 3.361706
v 93.893761 214.320404 135.001007
vn 2.761193 -1.143702 3.361701
v 43.274101 163.700745 135.001007
vn -3.762641 1.953964 -2.761981
v 231.056305 84.838814 45.001179
vn -1.708622 4.004632 1.140394
v 172.539780 27.061436 48.000919
vn -4.004632 1.708617 1.140391
v 230.533066 85.054718 48.000919
vn 4.041944 -1.278630 -2.762628
v 27.548958 169.133804 45.001179
vn 4.040071 1.623813 1.139602
v 28.072193 86.903839 48.000919
vn 4.041944 1.278630 -2.762629
v 27.548958 86.685394 45.001179
vn 4.826259 -0.721559 1.571181
v 151.160599 78.674240 48.000919
vn 0.850109 -0.850109 -5.497803
v 131.531479 126.063019 45.001179
vn 0.850107 -0.850107 -0.785396
v 131.531479 126.063019 48.000919
vn -1.202288 0.000002 -5.497730
v 127.071236 127.909599 45.001179
vn -3.922828 2.902492 1.573724
v 79.684998 108.280479 48.000919
vn -1.202293 0.000000 -0.785438
v 127.071236 127.909599 48.000919
vn 2.761183 -1.143737 -2.921463
v 27.548958 170.215836 45.001179
vn 1.574346 0.234323 -2.221249
v 28.313501 170.980377 45.001179
vn -0.721560 4.826256 1.571187
v 80.449539 149.385300 48.000919
vn -3.922829 -2.902493 1.573706
v 79.684998 147.538712 48.000919
vn 3.922828 2.902492 1.573722
v 179.684799 108.280479 48.000919
vn 0.721561 -4.826255 1.571182
v 178.920258 106.433899 48.000919
vn -2.761188 1.143730 -2.921470
v 231.820847 85.603363 45.001179
vn -0.836851 2.020331 5.293585
v 108.973740 177.909500 48.000919
vn 1.044574 -2.521786 1.839920
v 87.594559 229.522308 48.000919
vn 1.708620 -4.004629 1.140400
v 86.830017 228.757767 48.000919
vn -2.020333 0.836848 5.293583
v 79.684998 148.620758 48.000919
vn 2.521785 -1.044576 1.839919
v 28.072193 169.999939 48.000919
vn 4.040070 -1.623815 1.139602
v 28.072193 168.915359 48.000919
vn -2.020332 -0.836851 5.293581
v 79.684998 107.198441 48.000919
vn 2.521784 1.044576 1.839919
v 28.072193 85.819260 48.000919
vn 4.004630 1.708620 1.140391
v 28.836737 85.054718 48.000919
vn -0.836852 -2.020331 5.293584
v 108.973740 77.909698 48.000919
vn 1.044576 2.521785 1.839919
v 87.594559 26.296892 48.000919
vn 1.623812 4.040069 1.139609
v 88.679138 26.296892 48.000919
vn 0.836851 -2.020331 5.293585
v 150.396057 77.909698 48.000919
vn -1.044576 2.521784 1.839919
v 171.775238 26.296892 48.000919
vn 2.020334 -0.836848 5.293585
v 179.684799 107.198441 48.000919
vn -2.521786 1.044575 1.839920
v 231.297607 85.819260 48.000919
vn 2.020331 0.836851 5.293585
v 179.684799 148.620758 48.000919
vn -2.521787 -1.044574 1.839920
v 231.297607 169.999939 48.000919
vn -0.000043 0.000000 1.633784
v 129.684906 127.909599 134.602219
vn -1.743787 -1.547351 1.841177
v 109.679863 6.919236 63.002159
vn -1.743930 -4.642050 -0.759636
v 109.679863 24.645903 48.000919
vn -1.397805 -1.547351 -1.300416
v 109.679863 4.297957 48.000919
vn 1.743787 -1.547351 1.841177
v 149.684860 6.919236 63.002159
vn 1.397805 -1.547351 -1.300416
v 149.684860 4.297957 48.000919
vn 1.743930 -4.642050 -0.759636
v 149.684860 24.645903 48.000919
vn 4.642044 1.398202 2.381990
v 230.327316 147.909561 63.002159
vn 1.547351 -1.743787 1.841176
v 250.675262 107.909637 63.002159
vn 1.547351 1.743787 1.841176
v 250.675262 147.909561 63.002159
vn 4.642050 1.743930 -0.759636
v 232.948593 147.909561 48.000919
vn 1.547351 1.397806 -1.300416
v 253.296539 147.909561 48.000919
vn 4.642050 -1.743930 -0.759636
v 232.948593 107.909637 48.000919
vn 1.547351 -1.397806 -1.300416
v 253.296539 107.909637 48.000919
vn -1.398202 4.642045 2.381990
v 109.679863 228.552017 63.002159
vn 1.743787 1.547351 1.841176
v 149.684860 248.899963 63.002159
vn -1.743787 1.547351 1.841176
v 109.679863 248.899963 63.002159
vn -1.743930 4.642050 -0.759636
v 109.679863 231.173294 48.000919
vn -1.397806 1.547351 -1.300416
v 109.679863 251.521240 48.000919
vn 1.743930 4.642050 -0.759636
v 149.684860 231.173294 48.000919
vn 1.397806 1.547351 -1.300416
v 149.684860 251.521240 48.000919
vn -4.642050 -1.743930 -0.759636
v 26.421204 107.909637 48.000919
vn -1.547351 -1.743787 1.841177
v 8.694537 107.909637 63.002159
vn -1.547351 -1.397805 -1.300416
v 6.073258 107.909637 48.000919
vn -1.547351 1.743787 1.841177
v 8.694537 147.909561 63.002159
vn -1.547351 1.397805 -1.300416
v 6.073258 147.909561 48.000919
vn -4.642050 1.743930 -0.759636
v 26.421204 147.909561 48.000919
vn 2.521802 1.044551 -4.443254
v 19.685122 82.347076 0.000000
vn -2.521802 -1.044569 -1.839946
v 18.034119 81.663818 0.000000
vn 2.521811 -1.044551 -4.443259
v 19.685122 173.472122 0.000000
vn -1.044569 2.521802 -1.839951
v 83.439117 239.560379 0.000000
vn 1.044551 -2.521802 -4.443249
v 84.122375 237.909378 0.000000
vn -1.044557 -2.521803 -4.443258
v 175.247421 237.909378 0.000000
vn 1.044551 2.521811 -4.443250
v 84.122375 17.909821 0.000000
vn -1.044551 2.521802 -4.443258
v 175.247421 17.909821 0.000000
vn -2.521819 1.044559 -4.443255
v 239.684677 82.347076 0.000000
vn -4.642044 -1.398206 2.381990
v 29.042477 107.909637 63.002159
vn 1.143754 -2.761180 2.921499
v 166.161835 39.850334 135.001007
vn -1.143706 -2.761197 3.361705
v 165.476044 214.320404 135.001007
vn -1.143706 2.761197 3.361705
v 165.476044 41.498798 135.001007
vn 3.762644 1.953962 -2.761963
v 28.313501 84.838814 45.001179
vn 2.761184 1.143735 -2.921465
v 27.548958 85.603363 45.001179
vn -3.762632 -1.953965 -2.761985
v 231.056305 170.980377 45.001179
vn 0.000000 0.000000 -6.283184
v 130.225922 129.215164 45.001179
vn -1.278634 -4.041944 -2.762626
v 170.909103 230.045532 45.001179
vn -1.143737 2.761182 -2.921465
v 171.991135 25.773657 45.001179
vn 0.000000 0.000000 -6.283185
v 130.990463 127.368576 45.001179
vn 0.000000 0.000000 -6.283185
v 130.058273 126.982498 45.001179
vn 0.000000 0.000000 -6.283185
v 130.449432 127.145058 45.001179
vn 0.000000 0.000000 -6.283185
v 128.920364 128.674133 45.001179
vn 0.000000 0.000000 -6.283185
v 128.379333 128.450623 45.001179
vn 1.953963 -3.762637 -2.761980
v 86.614120 229.280991 45.001179
vn -1.953966 3.762631 -2.761991
v 172.755676 26.538200 45.001179
vn -4.041945 1.278630 -2.762630
v 231.820847 86.685394 45.001179
# 162 vertices, 0 vertices normals

f 1//1 2//2 3//3
f 4//4 5//5 6//6
f 5//5 7//7 8//8
f 9//9 10//10 8//8
f 10//10 11//11 12//12
f 13//13 14//14 6//6
f 15//15 12//12 16//16
f 17//17 18//18 1//1
f 19//19 13//13 17//17
f 17//17 20//20 21//21
f 22//22 23//23 24//24
f 25//25 26//26 27//27
f 28//28 29//29 30//30
f 31//31 32//32 33//33
f 29//29 34//34 30//30
f 23//23 35//35 24//24
f 36//36 37//37 31//31
f 38//38 36//36 39//39
f 40//40 41//41 42//42
f 43//43 44//44 45//45
f 46//46 47//47 48//48
f 36//36 49//49 39//39
f 44//44 50//50 45//45
f 51//51 52//52 41//41
f 29//29 53//53 54//54
f 36//36 55//55 40//40
f 23//23 56//56 57//57
f 58//58 59//59 60//60
f 61//61 62//62 63//63
f 54//54 64//64 65//65
f 66//66 67//67 68//68
f 69//69 70//70 71//71
f 72//72 73//73 74//74
f 75//75 76//76 77//77
f 78//78 79//79 80//80
f 81//81 82//82 83//83
f 81//81 84//84 85//85
f 67//67 86//86 68//68
f 87//87 81//81 83//83
f 88//88 61//61 63//63
f 79//79 89//89 80//80
f 79//79 90//90 72//72
f 91//91 92//92 93//93
f 94//94 95//95 96//96
f 97//97 98//98 99//99
f 100//100 101//101 102//102
f 103//103 104//104 73//73
f 105//105 106//106 64//64
f 107//107 108//108 32//32
f 38//38 109//109 51//51
f 28//28 109//109 107//107
f 109//109 62//62 107//107
f 109//109 89//89 105//105
f 43//43 109//109 100//100
f 22//22 109//109 97//97
f 109//109 82//82 97//97
f 83//83 82//82 87//87
f 24//24 35//35 22//22
f 45//45 50//50 43//43
f 80//80 89//89 78//78
f 63//63 62//62 88//88
f 30//30 34//34 28//28
f 109//109 86//86 94//94
f 68//68 86//86 66//66
f 39//39 49//49 38//38
f 110//110 111//111 112//112
f 16//16 113//113 15//15
f 113//113 112//112 114//114
f 113//113 115//115 15//15
f 111//111 114//114 112//112
f 116//116 117//117 118//118
f 119//119 118//118 120//120
f 121//121 120//120 122//122
f 121//121 117//117 19//19
f 117//117 120//120 118//118
f 123//123 124//124 125//125
f 126//126 125//125 127//127
f 128//128 127//127 129//129
f 128//128 124//124 4//4
f 124//124 127//127 125//125
f 130//130 131//131 132//132
f 131//131 9//9 133//133
f 132//132 133//133 134//134
f 132//132 135//135 130//130
f 135//135 133//133 9//9
f 7//7 136//136 137//137
f 7//7 138//138 136//136
f 139//139 138//138 7//7
f 139//139 140//140 138//138
f 14//14 140//140 139//139
f 14//14 141//141 140//140
f 3//3 141//141 14//14
f 3//3 2//2 141//141
f 136//136 11//11 137//137
f 142//142 11//11 136//136
f 142//142 18//18 11//11
f 143//143 18//18 142//142
f 143//143 1//1 18//18
f 144//144 1//1 143//143
f 2//2 1//1 144//144
f 5//5 126//126 139//139
f 5//5 123//123 126//126
f 126//126 14//14 139//139
f 128//128 14//14 126//126
f 128//128 6//6 14//14
f 4//4 6//6 128//128
f 5//5 4//4 123//123
f 7//7 5//5 139//139
f 10//10 130//130 137//137
f 10//10 145//145 130//130
f 130//130 7//7 137//137
f 135//135 7//7 130//130
f 135//135 8//8 7//7
f 9//9 8//8 135//135
f 10//10 9//9 145//145
f 11//11 10//10 137//137
f 14//14 13//13 3//3
f 111//111 12//12 11//11
f 16//16 12//12 111//111
f 18//18 111//111 11//11
f 18//18 115//115 111//111
f 146//146 115//115 18//18
f 146//146 15//15 115//115
f 12//12 15//15 146//146
f 18//18 17//17 146//146
f 13//13 119//119 3//3
f 13//13 116//116 119//119
f 119//119 1//1 3//3
f 121//121 1//1 119//119
f 121//121 17//17 1//1
f 19//19 17//17 121//121
f 13//13 19//19 116//116
f 26//26 8//8 10//10
f 71//71 8//8 26//26
f 71//71 5//5 8//8
f 70//70 5//5 71//71
f 70//70 6//6 5//5
f 147//147 6//6 70//70
f 147//147 13//13 6//6
f 20//20 13//13 147//147
f 12//12 26//26 10//10
f 12//12 27//27 26//26
f 146//146 27//27 12//12
f 146//146 148//148 27//27
f 17//17 148//148 146//146
f 17//17 21//21 148//148
f 20//20 17//17 13//13
f 23//23 99//99 149//149
f 23//23 22//22 99//99
f 25//25 27//27 101//101
f 26//26 99//99 98//98
f 150//150 142//142 136//136
f 149//149 142//142 150//150
f 149//149 56//56 142//142
f 149//149 57//57 56//56
f 99//99 57//57 149//149
f 99//99 25//25 57//57
f 26//26 25//25 99//99
f 29//29 32//32 151//151
f 29//29 28//28 32//32
f 33//33 147//147 52//52
f 20//20 32//32 108//108
f 53//53 141//141 2//2
f 151//151 141//141 53//53
f 33//33 20//20 147//147
f 33//33 32//32 20//20
f 141//141 31//31 37//37
f 151//151 31//31 141//141
f 32//32 31//31 151//151
f 33//33 29//29 31//31
f 34//34 29//29 33//33
f 25//25 23//23 57//57
f 35//35 23//23 25//25
f 36//36 29//29 152//152
f 36//36 31//31 29//29
f 37//37 36//36 153//153
f 36//36 41//41 153//153
f 36//36 38//38 41//41
f 42//42 70//70 92//92
f 147//147 41//41 52//52
f 141//141 55//55 140//140
f 141//141 40//40 55//55
f 42//42 147//147 70//70
f 42//42 41//41 147//147
f 153//153 141//141 37//37
f 153//153 40//40 141//141
f 41//41 40//40 153//153
f 44//44 102//102 46//46
f 44//44 43//43 102//102
f 47//47 148//148 104//104
f 27//27 102//102 101//101
f 142//142 154//154 143//143
f 142//142 48//48 154//154
f 47//47 27//27 148//148
f 47//47 102//102 27//27
f 46//46 142//142 56//56
f 46//46 48//48 142//142
f 47//47 46//46 102//102
f 42//42 36//36 40//40
f 49//49 36//36 42//42
f 47//47 44//44 48//48
f 50//50 44//44 47//47
f 33//33 51//51 34//34
f 51//51 41//41 38//38
f 52//52 51//51 33//33
f 59//59 155//155 60//60
f 156//156 157//157 58//58
f 152//152 158//158 36//36
f 81//81 150//150 77//77
f 81//81 149//149 150//150
f 81//81 23//23 149//149
f 159//159 23//23 81//81
f 159//159 156//156 23//23
f 158//158 156//156 159//159
f 152//152 156//156 158//158
f 152//152 157//157 156//156
f 152//152 59//59 157//157
f 152//152 155//155 59//59
f 152//152 61//61 155//155
f 29//29 61//61 152//152
f 29//29 54//54 61//61
f 53//53 29//29 151//151
f 67//67 158//158 159//159
f 67//67 36//36 158//158
f 160//160 36//36 67//67
f 55//55 36//36 160//160
f 58//58 23//23 156//156
f 44//44 23//23 58//58
f 46//46 23//23 44//44
f 56//56 23//23 46//46
f 154//154 79//79 161//161
f 48//48 79//79 154//154
f 44//44 79//79 48//48
f 58//58 79//79 44//44
f 58//58 60//60 79//79
f 59//59 58//58 157//157
f 65//65 61//61 54//54
f 62//62 61//61 65//65
f 21//21 64//64 106//106
f 65//65 20//20 108//108
f 144//144 53//53 2//2
f 144//144 54//54 53//53
f 20//20 64//64 21//21
f 65//65 64//64 20//20
f 162//162 144//144 90//90
f 162//162 54//54 144//144
f 64//64 54//54 162//162
f 67//67 93//93 160//160
f 67//67 66//66 93//93
f 69//69 71//71 95//95
f 70//70 93//93 92//92
f 55//55 138//138 140//140
f 160//160 138//138 55//55
f 160//160 84//84 138//138
f 160//160 85//85 84//84
f 93//93 85//85 160//160
f 93//93 69//69 85//85
f 70//70 69//69 93//93
f 148//148 73//73 104//104
f 74//74 21//21 106//106
f 154//154 144//144 143//143
f 161//161 144//144 154//154
f 21//21 73//73 148//148
f 74//74 73//73 21//21
f 144//144 72//72 90//90
f 161//161 72//72 144//144
f 73//73 72//72 161//161
f 71//71 96//96 95//95
f 76//76 26//26 98//98
f 138//138 150//150 136//136
f 138//138 77//77 150//150
f 26//26 96//96 71//71
f 76//76 96//96 26//26
f 75//75 138//138 84//84
f 75//75 77//77 138//138
f 76//76 75//75 96//96
f 79//79 73//73 161//161
f 79//79 78//78 73//73
f 76//76 81//81 77//77
f 82//82 81//81 76//76
f 81//81 67//67 159//159
f 81//81 85//85 67//67
f 84//84 81//81 75//75
f 69//69 67//67 85//85
f 86//86 67//67 69//69
f 81//81 96//96 75//75
f 81//81 87//87 96//96
f 61//61 64//64 162//162
f 61//61 88//88 64//64
f 74//74 79//79 72//72
f 89//89 79//79 74//74
f 61//61 60//60 155//155
f 61//61 79//79 60//60
f 162//162 79//79 61//61
f 90//90 79//79 162//162
f 42//42 91//91 49//49
f 91//91 93//93 66//66
f 92//92 91//91 42//42
f 94//94 96//96 87//87
f 69//69 94//94 86//86
f 95//95 94//94 69//69
f 76//76 97//97 82//82
f 97//97 99//99 22//22
f 98//98 97//97 76//76
f 25//25 100//100 35//35
f 100//100 102//102 43//43
f 101//101 100//100 25//25
f 47//47 103//103 50//50
f 103//103 73//73 78//78
f 104//104 103//103 47//47
f 105//105 64//64 88//88
f 74//74 105//105 89//89
f 106//106 105//105 74//74
f 107//107 32//32 28//28
f 65//65 107//107 62//62
f 108//108 107//107 65//65
f 109//109 49//49 91//91
f 109//109 38//38 49//49
f 109//109 34//34 51//51
f 109//109 28//28 34//34
f 88//88 109//109 105//105
f 62//62 109//109 88//88
f 78//78 109//109 103//103
f 89//89 109//109 78//78
f 109//109 50//50 103//103
f 109//109 43//43 50//50
f 109//109 35//35 100//100
f 109//109 22//22 35//35
f 87//87 109//109 94//94
f 82//82 109//109 87//87
f 66//66 109//109 91//91
f 86//86 109//109 66//66
f 111//111 110//110 16//16
f 113//113 16//16 110//110
f 112//112 113//113 110//110
f 115//115 113//113 114//114
f 114//114 111//111 115//115
f 117//117 116//116 19//19
f 118//118 119//119 116//116
f 120//120 121//121 119//119
f 117//117 121//121 122//122
f 120//120 117//117 122//122
f 124//124 123//123 4//4
f 125//125 126//126 123//123
f 127//127 128//128 126//126
f 124//124 128//128 129//129
f 127//127 124//124 129//129
f 131//131 130//130 145//145
f 9//9 131//131 145//145
f 133//133 132//132 131//131
f 135//135 132//132 134//134
f 133//133 135//135 134//134
# 352 faces, 0 coords texture

# End of File
